<?xml version="1.0" encoding="utf-8"?>
<!-- Generator: Adobe Illustrator 16.0.0, SVG Export Plug-In . SVG Version: 6.00 Build 0)  -->
<svg version="1.2" baseProfile="tiny" id="Layer_1" xmlns="http://www.w3.org/2000/svg" xmlns:xlink="http://www.w3.org/1999/xlink"
	 x="0px" y="0px" width="4896px" height="5184px" viewBox="0 0 4896 5184" xml:space="preserve">
<g>
	<g>
		<path fill="#FFFFFF" d="M3657.6,1h-18.144c88.992,71.712,147.744,179.712,147.744,302.4V1297H3960V303.4
			C3960,136.648,3824.352,1,3657.6,1z"/>
		<path fill="#FFFFFF" d="M3911.616,11.368C3993.696,83.08,4046.4,186.76,4046.4,303.4V1297H4176V346.6
			C4176,183.304,4063.68,48.52,3911.616,11.368z"/>
		<path fill="#FFFFFF" d="M3528,303.4V1297h172.8V303.4C3700.8,136.648,3565.152,1,3398.4,1h-18.145
			C3470.112,71.848,3528,180.712,3528,303.4z"/>
		<path fill="#FFFFFF" d="M3441.6,303.4C3441.6,136.648,3305.952,1,3139.2,1H1065.6C874.656,1,720,155.656,720,346.6V1297h2721.6
			V303.4z"/>
	</g>
</g>
<g>
	<path fill="#FFFFFF" d="M1751.616,2738.152c-73.44,0-134.784,30.24-185.761,89.855c-50.111,60.48-76.031,135.648-76.031,226.369
		c0,90.719,25.056,164.16,76.031,222.047c50.112,57.025,111.457,86.4,183.168,86.4c71.713,0,134.785-28.512,188.353-86.4
		c53.567-57.887,81.216-131.328,81.216-221.184s-25.92-165.023-78.624-226.367
		C1887.264,2769.256,1824.192,2738.152,1751.616,2738.152z"/>
	<path fill="#FFFFFF" d="M3132.288,2738.152c-73.44,0-134.784,30.24-185.76,89.855c-50.112,60.48-76.032,135.648-76.032,226.369
		c0,90.719,25.057,164.16,76.032,222.047c50.976,57.889,111.456,86.4,183.168,86.4s134.784-28.512,188.353-86.4
		c53.567-57.887,81.215-131.328,81.215-221.184s-25.92-165.023-78.623-226.367C3268.8,2769.256,3205.729,2738.152,3132.288,2738.152
		z"/>
	<path fill="#FFFFFF" d="M4262.4,1469.8H633.6c-190.943,0-345.6,154.656-345.6,345.6v2271.458
		c0,141.695,86.4,268.703,216.864,320.543l1814.399,725.76c82.08,32.832,174.528,32.832,256.608,0l1814.4-725.76
		C4521.6,4355.561,4608,4227.689,4608,4086.857V1815.4C4608,1624.457,4453.344,1469.8,4262.4,1469.8z M2179.296,3462.184
		c-101.952,110.592-220.319,165.889-356.832,165.889c-74.304,0-140.832-16.416-199.584-49.248
		c-57.888-31.969-129.601,7.775-129.601,74.305v273.887c0,47.521-38.879,86.4-86.399,86.4h-138.24
		c-47.52,0-86.399-38.879-86.399-86.4V2582.632c0-47.52,38.88-86.4,86.399-86.4h138.24c47.521,0,86.399,38.881,86.399,86.4v38.016
		c95.041-95.041,208.225-143.424,337.824-143.424s245.377,54.432,347.328,162.432c101.952,108.863,152.064,245.375,152.064,409.535
		S2281.248,3351.592,2179.296,3462.184z M3557.376,3460.457c-103.68,112.32-221.185,167.615-353.376,167.615
		s-241.92-54.432-328.32-164.16v60.48c0,47.52-38.88,86.4-86.399,86.4h-138.24c-47.521,0-86.399-38.881-86.399-86.4V2159.272
		c0-47.52,38.879-86.399,86.399-86.399h138.24c47.52,0,86.399,38.88,86.399,86.399v283.392c0,63.937,67.393,110.593,123.553,81.217
		c61.344-31.104,130.464-46.656,208.224-46.656c135.648,0,254.016,52.704,354.24,158.977
		c101.088,105.406,151.2,241.92,151.2,407.807C3712.896,3209.896,3661.057,3348.137,3557.376,3460.457z"/>
</g>
</svg>
